<svg width="20" height="20" viewBox="0 0 20 20" fill="none" xmlns="http://www.w3.org/2000/svg">
<path d="M5.23002 14.18C5.25002 14.18 5.29002 14.18 5.31002 14.17L8.66002 13.58C8.76002 13.56 8.85002 13.52 8.92002 13.44L14.31 7.76C15.25 6.81 15.25 5.28 14.3 4.33C13.36 3.39 11.81 3.39 10.87 4.33L9.62002 5.59L9.61002 5.6L5.49002 10.02C5.43002 10.08 5.39002 10.17 5.37002 10.26L4.78002 13.61C4.76002 13.76 4.80002 13.92 4.91002 14.03C4.99002 14.12 5.11002 14.18 5.23002 14.18ZM13.64 4.99C14.22 5.57 14.22 6.5 13.64 7.08L13.63 7.09L13.03 7.72L10.92 5.61L11.55 4.98C12.13 4.41 13.07 4.41 13.64 4.99ZM6.27002 10.56L10.25 6.29L12.38 8.42L8.36002 12.66L5.83002 13.11L6.27002 10.56ZM15.87 15.44H4.13002C3.87002 15.44 3.65002 15.65 3.65002 15.92C3.65002 16.18 3.86002 16.4 4.13002 16.4H15.87C16.13 16.4 16.35 16.19 16.35 15.92C16.34 15.65 16.13 15.44 15.87 15.44Z" fill="#007AFF"/>
</svg>
